<svg width="184" height="32" viewBox="0 0 184 32" fill="none" xmlns="http://www.w3.org/2000/svg">
    <path d="M12.2609 2.59V4.81H3.17086V11.86H10.5509V14.08H3.17086V23.5H0.44086V2.59H12.2609ZM16.968 4.39C16.448 4.39 16.008 4.21 15.648 3.85C15.288 3.49 15.108 3.05 15.108 2.53C15.108 2.01 15.288 1.57 15.648 1.21C16.008 0.849999 16.448 0.669999 16.968 0.669999C17.468 0.669999 17.888 0.849999 18.228 1.21C18.588 1.57 18.768 2.01 18.768 2.53C18.768 3.05 18.588 3.49 18.228 3.85C17.888 4.21 17.468 4.39 16.968 4.39ZM18.288 7.06V23.5H15.558V7.06H18.288ZM30.9509 6.76C32.9509 6.76 34.5709 7.37 35.8109 8.59C37.0509 9.79 37.6709 11.53 37.6709 13.81V23.5H34.9709V14.2C34.9709 12.56 34.5609 11.31 33.7409 10.45C32.9209 9.57 31.8009 9.13 30.3809 9.13C28.9409 9.13 27.7909 9.58 26.9309 10.48C26.0909 11.38 25.6709 12.69 25.6709 14.41V23.5H22.9409V7.06H25.6709V9.4C26.2109 8.56 26.9409 7.91 27.8609 7.45C28.8009 6.99 29.8309 6.76 30.9509 6.76ZM41.1103 15.22C41.1103 13.54 41.4503 12.07 42.1303 10.81C42.8103 9.53 43.7403 8.54 44.9203 7.84C46.1203 7.14 47.4503 6.79 48.9103 6.79C50.3503 6.79 51.6003 7.1 52.6603 7.72C53.7203 8.34 54.5103 9.12 55.0303 10.06V7.06H57.7903V23.5H55.0303V20.44C54.4903 21.4 53.6803 22.2 52.6003 22.84C51.5403 23.46 50.3003 23.77 48.8803 23.77C47.4203 23.77 46.1003 23.41 44.9203 22.69C43.7403 21.97 42.8103 20.96 42.1303 19.66C41.4503 18.36 41.1103 16.88 41.1103 15.22ZM55.0303 15.25C55.0303 14.01 54.7803 12.93 54.2803 12.01C53.7803 11.09 53.1003 10.39 52.2403 9.91C51.4003 9.41 50.4703 9.16 49.4503 9.16C48.4303 9.16 47.5003 9.4 46.6603 9.88C45.8203 10.36 45.1503 11.06 44.6503 11.98C44.1503 12.9 43.9003 13.98 43.9003 15.22C43.9003 16.48 44.1503 17.58 44.6503 18.52C45.1503 19.44 45.8203 20.15 46.6603 20.65C47.5003 21.13 48.4303 21.37 49.4503 21.37C50.4703 21.37 51.4003 21.13 52.2403 20.65C53.1003 20.15 53.7803 19.44 54.2803 18.52C54.7803 17.58 55.0303 16.49 55.0303 15.25ZM70.4138 6.76C72.4138 6.76 74.0338 7.37 75.2738 8.59C76.5138 9.79 77.1338 11.53 77.1338 13.81V23.5H74.4338V14.2C74.4338 12.56 74.0238 11.31 73.2038 10.45C72.3838 9.57 71.2638 9.13 69.8438 9.13C68.4038 9.13 67.2538 9.58 66.3938 10.48C65.5538 11.38 65.1338 12.69 65.1338 14.41V23.5H62.4038V7.06H65.1338V9.4C65.6738 8.56 66.4038 7.91 67.3238 7.45C68.2638 6.99 69.2938 6.76 70.4138 6.76ZM80.5732 15.25C80.5732 13.55 80.9132 12.07 81.5932 10.81C82.2732 9.53 83.2132 8.54 84.4132 7.84C85.6332 7.14 87.0232 6.79 88.5832 6.79C90.6032 6.79 92.2632 7.28 93.5632 8.26C94.8832 9.24 95.7532 10.6 96.1732 12.34H93.2332C92.9532 11.34 92.4032 10.55 91.5832 9.97C90.7832 9.39 89.7832 9.1 88.5832 9.1C87.0232 9.1 85.7632 9.64 84.8032 10.72C83.8432 11.78 83.3632 13.29 83.3632 15.25C83.3632 17.23 83.8432 18.76 84.8032 19.84C85.7632 20.92 87.0232 21.46 88.5832 21.46C89.7832 21.46 90.7832 21.18 91.5832 20.62C92.3832 20.06 92.9332 19.26 93.2332 18.22H96.1732C95.7332 19.9 94.8532 21.25 93.5332 22.27C92.2132 23.27 90.5632 23.77 88.5832 23.77C87.0232 23.77 85.6332 23.42 84.4132 22.72C83.2132 22.02 82.2732 21.03 81.5932 19.75C80.9132 18.47 80.5732 16.97 80.5732 15.25ZM114.816 14.65C114.816 15.17 114.786 15.72 114.726 16.3H101.586C101.686 17.92 102.236 19.19 103.236 20.11C104.256 21.01 105.486 21.46 106.926 21.46C108.106 21.46 109.086 21.19 109.866 20.65C110.666 20.09 111.226 19.35 111.546 18.43H114.486C114.046 20.01 113.166 21.3 111.846 22.3C110.526 23.28 108.886 23.77 106.926 23.77C105.366 23.77 103.966 23.42 102.726 22.72C101.506 22.02 100.546 21.03 99.8459 19.75C99.1459 18.45 98.7959 16.95 98.7959 15.25C98.7959 13.55 99.1359 12.06 99.8159 10.78C100.496 9.5 101.446 8.52 102.666 7.84C103.906 7.14 105.326 6.79 106.926 6.79C108.486 6.79 109.866 7.13 111.066 7.81C112.266 8.49 113.186 9.43 113.826 10.63C114.486 11.81 114.816 13.15 114.816 14.65ZM111.996 14.08C111.996 13.04 111.766 12.15 111.306 11.41C110.846 10.65 110.216 10.08 109.416 9.7C108.636 9.3 107.766 9.1 106.806 9.1C105.426 9.1 104.246 9.54 103.266 10.42C102.306 11.3 101.756 12.52 101.616 14.08H111.996ZM138.777 18.85H129.657L127.977 23.5H125.097L132.657 2.71H135.807L143.337 23.5H140.457L138.777 18.85ZM137.997 16.63L134.217 6.07L130.437 16.63H137.997ZM149.362 10.09C149.902 9.15 150.702 8.37 151.762 7.75C152.842 7.11 154.092 6.79 155.512 6.79C156.972 6.79 158.292 7.14 159.472 7.84C160.672 8.54 161.612 9.53 162.292 10.81C162.972 12.07 163.312 13.54 163.312 15.22C163.312 16.88 162.972 18.36 162.292 19.66C161.612 20.96 160.672 21.97 159.472 22.69C158.292 23.41 156.972 23.77 155.512 23.77C154.112 23.77 152.872 23.46 151.792 22.84C150.732 22.2 149.922 21.41 149.362 20.47V31.3H146.632V7.06H149.362V10.09ZM160.522 15.22C160.522 13.98 160.272 12.9 159.772 11.98C159.272 11.06 158.592 10.36 157.732 9.88C156.892 9.4 155.962 9.16 154.942 9.16C153.942 9.16 153.012 9.41 152.152 9.91C151.312 10.39 150.632 11.1 150.112 12.04C149.612 12.96 149.362 14.03 149.362 15.25C149.362 16.49 149.612 17.58 150.112 18.52C150.632 19.44 151.312 20.15 152.152 20.65C153.012 21.13 153.942 21.37 154.942 21.37C155.962 21.37 156.892 21.13 157.732 20.65C158.592 20.15 159.272 19.44 159.772 18.52C160.272 17.58 160.522 16.48 160.522 15.22ZM169.636 10.09C170.176 9.15 170.976 8.37 172.036 7.75C173.116 7.11 174.366 6.79 175.786 6.79C177.246 6.79 178.566 7.14 179.746 7.84C180.946 8.54 181.886 9.53 182.566 10.81C183.246 12.07 183.586 13.54 183.586 15.22C183.586 16.88 183.246 18.36 182.566 19.66C181.886 20.96 180.946 21.97 179.746 22.69C178.566 23.41 177.246 23.77 175.786 23.77C174.386 23.77 173.146 23.46 172.066 22.84C171.006 22.2 170.196 21.41 169.636 20.47V31.3H166.906V7.06H169.636V10.09ZM180.796 15.22C180.796 13.98 180.546 12.9 180.046 11.98C179.546 11.06 178.866 10.36 178.006 9.88C177.166 9.4 176.236 9.16 175.216 9.16C174.216 9.16 173.286 9.41 172.426 9.91C171.586 10.39 170.906 11.1 170.386 12.04C169.886 12.96 169.636 14.03 169.636 15.25C169.636 16.49 169.886 17.58 170.386 18.52C170.906 19.44 171.586 20.15 172.426 20.65C173.286 21.13 174.216 21.37 175.216 21.37C176.236 21.37 177.166 21.13 178.006 20.65C178.866 20.15 179.546 19.44 180.046 18.52C180.546 17.58 180.796 16.48 180.796 15.22Z" fill="black"/>
</svg>