<svg aria-hidden="true" style="position: absolute; width: 0; height: 0; overflow: hidden;" version="1.1" xmlns="http://www.w3.org/2000/svg" xmlns:xlink="http://www.w3.org/1999/xlink">
    <defs>
        <symbol id="icon-home" viewBox="0 0 32 32">
            <path fill="#fff" style="fill: var(--color1, #fff)" d="M10.105 5.895h11.789c0.93 0 1.684 0.754 1.684 1.684v11.789c0 0.93-0.754 1.684-1.684 1.684h-11.789c-0.93 0-1.684-0.754-1.684-1.684v-11.789c0-0.93 0.754-1.684 1.684-1.684z"></path>
            <path fill="#4a56e2" style="fill: var(--color2, #4a56e2)" d="M10.105 5.895c-0.93 0-1.684 0.754-1.684 1.684v11.789c0 0.93 0.754 1.684 1.684 1.684h11.789c0.93 0 1.684-0.754 1.684-1.684v-11.789c0-0.93-0.754-1.684-1.684-1.684h-11.789zM14.989 14.415v3.269h-2.526v-4.359h-1.516l5.053-4.904 5.053 4.904h-1.516v4.359h-2.526v-3.269h-2.021z"></path>
        </symbol>
        <symbol id="icon-account" viewBox="0 0 32 32">
            <path fill="#e0e0e0" style="fill: var(--color3, #e0e0e0)" d="M4 6.667v18.667c0 1.467 1.187 2.667 2.667 2.667h18.667c1.467 0 2.667-1.2 2.667-2.667v-18.667c0-1.467-1.2-2.667-2.667-2.667h-18.667c-1.48 0-2.667 1.2-2.667 2.667zM20 12c0 2.213-1.787 4-4 4s-4-1.787-4-4c0-2.213 1.787-4 4-4s4 1.787 4 4zM8 22.667c0-2.667 5.333-4.133 8-4.133s8 1.467 8 4.133v1.333h-16v-1.333z"></path>
        </symbol>
        <symbol id="icon-dollar" viewBox="0 0 32 32">
            <path fill="#6e78e8" style="fill: var(--color4, #6e78e8)" d="M6.545 2.182c-2.41 0-4.364 1.954-4.364 4.364v18.909c0 2.41 1.954 4.364 4.364 4.364h18.909c2.41 0 4.364-1.954 4.364-4.364v-18.909c0-2.41-1.954-4.364-4.364-4.364h-18.909zM13.638 13.526c0 0.86 0.661 1.412 2.715 1.946s4.253 1.412 4.253 3.982c0 1.855-1.403 2.878-3.167 3.212v1.946h-2.715v-1.964c-1.737-0.371-3.222-1.484-3.33-3.466h1.991c0.1 1.068 0.833 1.9 2.697 1.9 2 0 2.443-0.995 2.443-1.62 0-0.842-0.452-1.638-2.715-2.181-2.525-0.606-4.253-1.647-4.253-3.737 0-1.747 1.412-2.887 3.167-3.267v-1.955h2.715v1.982c1.891 0.462 2.841 1.891 2.905 3.448h-2c-0.054-1.131-0.651-1.9-2.262-1.9-1.529 0-2.443 0.688-2.443 1.674z"></path>
        </symbol>
        <symbol id="icon-minus" viewBox="0 0 320 32">
            <path fill="none" stroke="#fff" style="stroke: var(--color1, #fff)" stroke-linejoin="miter" stroke-linecap="butt" stroke-miterlimit="4" stroke-width="32" d="M0 16l320-0"></path>
        </symbol>
        <symbol id="icon-plus" viewBox="0 0 32 32">
            <path fill="none" stroke="#fff" style="stroke: var(--color1, #fff)" stroke-linejoin="miter" stroke-linecap="butt" stroke-miterlimit="4" stroke-width="3.2" d="M16 0v32"></path>
            <path fill="none" stroke="#fff" style="stroke: var(--color1, #fff)" stroke-linejoin="miter" stroke-linecap="butt" stroke-miterlimit="4" stroke-width="3.2" d="M0 16h32"></path>
        </symbol>
        <symbol id="icon-exit" viewBox="0 0 34 32">
            <path fill="#bdbdbd" style="fill: var(--color5, #bdbdbd)" d="M20.94 23.237h2.499v4.997c0 2.067-1.681 3.748-3.748 3.748h-15.054c-2.066 0-3.748-1.681-3.748-3.748v-24.486c0-2.066 1.681-3.748 3.748-3.748h15.054c2.067 0 3.748 1.681 3.748 3.748v4.997h-2.499v-4.997c0-0.689-0.56-1.249-1.249-1.249h-15.054c-0.689 0-1.249 0.561-1.249 1.249v24.486c0 0.689 0.561 1.249 1.249 1.249h15.054c0.689 0 1.249-0.561 1.249-1.249v-4.997zM26.999 10.102l-1.767 1.767 2.873 2.874h-16.161v2.499h16.161l-2.873 2.873 1.767 1.767 5.889-5.889-5.889-5.89z"></path>
        </symbol>
        <symbol id="icon-date" viewBox="0 0 32 32">
            <path fill="#4a56e2" style="fill: var(--color2, #4a56e2)" d="M12 14.667h-2.667v2.667h2.667v-2.667zM17.333 14.667h-2.667v2.667h2.667v-2.667zM22.667 14.667h-2.667v2.667h2.667v-2.667zM25.333 5.333h-1.333v-2.667h-2.667v2.667h-10.667v-2.667h-2.667v2.667h-1.333c-1.48 0-2.653 1.2-2.653 2.667l-0.013 18.667c0 1.467 1.187 2.667 2.667 2.667h18.667c1.467 0 2.667-1.2 2.667-2.667v-18.667c0-1.467-1.2-2.667-2.667-2.667zM25.333 26.667h-18.667v-14.667h18.667v14.667z"></path>
        </symbol>
        <symbol id="icon-timeline" viewBox="0 0 32 32">
            <path fill="#6e78e8" style="fill: var(--color4, #6e78e8)" d="M6.667 4h18.667c1.473 0 2.667 1.194 2.667 2.667v18.667c0 1.473-1.194 2.667-2.667 2.667h-18.667c-1.473 0-2.667-1.194-2.667-2.667v-18.667c0-1.473 1.194-2.667 2.667-2.667zM23.636 14.222c0.933 0 1.697-0.8 1.697-1.778s-0.764-1.778-1.697-1.778-1.697 0.8-1.697 1.778c0 0.16 0.017 0.311 0.059 0.453l-3.012 3.165c-0.136-0.045-0.289-0.062-0.441-0.062s-0.305 0.018-0.441 0.062l-2.164-2.267c0.042-0.142 0.059-0.302 0.059-0.462 0-0.978-0.764-1.778-1.697-1.778s-1.697 0.8-1.697 1.778c0 0.16 0.017 0.32 0.059 0.462l-3.869 4.044c-0.136-0.044-0.28-0.062-0.433-0.062-0.933 0-1.697 0.8-1.697 1.778s0.764 1.778 1.697 1.778 1.697-0.8 1.697-1.778c0-0.16-0.017-0.311-0.059-0.453l3.861-4.053c0.136 0.044 0.288 0.062 0.441 0.062s0.305-0.018 0.441-0.062l2.164 2.267c-0.042 0.142-0.059 0.302-0.059 0.462 0 0.978 0.764 1.778 1.697 1.778s1.697-0.8 1.697-1.778c0-0.16-0.017-0.32-0.059-0.462l3.021-3.156c0.136 0.044 0.28 0.062 0.433 0.062z"></path>
        </symbol>
        <symbol id="icon-logo" viewBox="0 0 145 32">
            <path fill="#24cca7" style="fill: var(--color6, #24cca7)" d="M3.755 7.619l16.211-4.537-0.859-1.779c-0.562-1.157-1.932-1.634-3.060-1.058l-14.513 7.375h2.219z"></path>
            <path fill="#24cca7" style="fill: var(--color6, #24cca7)" d="M24.813 3.048c-0.195 0-0.391 0.029-0.586 0.087l-15.012 4.484h18.431l-0.693-2.779c-0.266-1.083-1.163-1.793-2.14-1.793z"></path>
            <path fill="#4a56e2" style="fill: var(--color2, #4a56e2)" d="M28.36 8.573h-26.559c-0.568 0-1.074 0.26-1.405 0.67-0.151 0.189-0.266 0.406-0.331 0.645-0.040 0.15-0.065 0.307-0.065 0.467v19.862c0 0.984 0.805 1.783 1.797 1.783h26.559c0.992 0 1.797-0.799 1.797-1.783v-4.973h-10.662c-1.685 0-3.054-1.358-3.054-3.030v-3.964c0-0.82 0.331-1.565 0.866-2.111 0.474-0.485 1.11-0.813 1.822-0.895 0.119-0.014 0.241-0.021 0.363-0.021h10.666v-4.867c0.004-0.984-0.801-1.783-1.793-1.783z"></path>
            <path fill="#4a56e2" style="fill: var(--color2, #4a56e2)" d="M31.414 16.926c-0.18-0.164-0.392-0.289-0.629-0.371-0.183-0.061-0.377-0.096-0.582-0.096h-10.712c-0.992 0-1.797 0.799-1.797 1.783v3.968c0 0.984 0.805 1.783 1.797 1.783h10.712c0.205 0 0.399-0.036 0.582-0.096 0.237-0.078 0.449-0.207 0.629-0.371 0.359-0.324 0.586-0.795 0.586-1.316v-3.968c0-0.52-0.226-0.991-0.586-1.316zM23.243 20.581c0 0.492-0.402 0.891-0.898 0.891h-0.596c-0.496 0-0.898-0.399-0.898-0.891v-0.592c0-0.285 0.133-0.538 0.345-0.699 0.155-0.118 0.345-0.193 0.553-0.193h0.596c0.496 0 0.898 0.399 0.898 0.891v0.592z"></path>
            <path fill="#000" style="fill: var(--color7, #000)" d="M72.672 7.952l-4.392 16.848h-4.968l-2.688-11.088-2.784 11.088h-4.968l-4.272-16.848h4.392l2.424 12.264 3-12.264h4.512l2.88 12.264 2.448-12.264h4.416zM73.914 18.080c0-1.376 0.256-2.584 0.768-3.624 0.528-1.040 1.24-1.84 2.136-2.4s1.896-0.84 3-0.84c0.944 0 1.768 0.192 2.472 0.576 0.72 0.384 1.272 0.888 1.656 1.512v-1.896h4.104v13.392h-4.104v-1.896c-0.4 0.624-0.96 1.128-1.68 1.512-0.704 0.384-1.528 0.576-2.472 0.576-1.088 0-2.080-0.28-2.976-0.84-0.896-0.576-1.608-1.384-2.136-2.424-0.512-1.056-0.768-2.272-0.768-3.648zM83.946 18.104c0-1.024-0.288-1.832-0.864-2.424-0.56-0.592-1.248-0.888-2.064-0.888s-1.512 0.296-2.088 0.888c-0.56 0.576-0.84 1.376-0.84 2.4s0.28 1.84 0.84 2.448c0.576 0.592 1.272 0.888 2.088 0.888s1.504-0.296 2.064-0.888c0.576-0.592 0.864-1.4 0.864-2.424zM95.123 7.040v17.76h-4.104v-17.76h4.104zM102.202 7.040v17.76h-4.104v-17.76h4.104zM117.799 17.888c0 0.384-0.024 0.784-0.072 1.2h-9.288c0.064 0.832 0.328 1.472 0.792 1.92 0.48 0.432 1.064 0.648 1.752 0.648 1.024 0 1.736-0.432 2.136-1.296h4.368c-0.224 0.88-0.632 1.672-1.224 2.376-0.576 0.704-1.304 1.256-2.184 1.656s-1.864 0.6-2.952 0.6c-1.312 0-2.48-0.28-3.504-0.84s-1.824-1.36-2.4-2.4c-0.576-1.040-0.864-2.256-0.864-3.648s0.28-2.608 0.84-3.648c0.576-1.040 1.376-1.84 2.4-2.4s2.2-0.84 3.528-0.84c1.296 0 2.448 0.272 3.456 0.816s1.792 1.32 2.352 2.328c0.576 1.008 0.864 2.184 0.864 3.528zM113.599 16.808c0-0.704-0.24-1.264-0.72-1.68s-1.080-0.624-1.8-0.624c-0.688 0-1.272 0.2-1.752 0.6-0.464 0.4-0.752 0.968-0.864 1.704h5.136zM127.429 21.32v3.48h-2.088c-1.488 0-2.648-0.36-3.48-1.080-0.832-0.736-1.248-1.928-1.248-3.576v-5.328h-1.632v-3.408h1.632v-3.264h4.104v3.264h2.688v3.408h-2.688v5.376c0 0.4 0.096 0.688 0.288 0.864s0.512 0.264 0.96 0.264h1.464z"></path>
        </symbol>
        <symbol id="icon-lock" viewBox="0 0 33 32">
            <path fill="#e0e0e0" style="fill: var(--color3, #e0e0e0)" d="M24.667 10.667h-1.333v-2.667c0-3.68-2.987-6.667-6.667-6.667s-6.667 2.987-6.667 6.667v2.667h-1.333c-1.467 0-2.667 1.2-2.667 2.667v13.333c0 1.467 1.2 2.667 2.667 2.667h16c1.467 0 2.667-1.2 2.667-2.667v-13.333c0-1.467-1.2-2.667-2.667-2.667zM16.667 22.667c-1.467 0-2.667-1.2-2.667-2.667s1.2-2.667 2.667-2.667c1.467 0 2.667 1.2 2.667 2.667s-1.2 2.667-2.667 2.667zM20.8 10.667h-8.267v-2.667c0-2.28 1.853-4.133 4.133-4.133s4.133 1.853 4.133 4.133v2.667z"></path>
        </symbol>
        <symbol id="icon-email" viewBox="0 0 33 32">
            <path fill="#000000" style="fill: var(--color3, #e0e0e0)" d="M27.333 5.333h-21.333c-1.467 0-2.653 1.2-2.653 2.667l-0.013 16c0 1.467 1.2 2.667 2.667 2.667h21.333c1.467 0 2.667-1.2 2.667-2.667v-16c0-1.467-1.2-2.667-2.667-2.667zM27.333 10.667l-10.667 6.667-10.667-6.667v-2.667l10.667 6.667 10.667-6.667v2.667z"></path>
        </symbol>
          <symbol id="icon-add" viewBox="0 0 20 20">
            <path d="M10 0v20M0 10h20" stroke="#fff" stroke-width="2"/>
        </symbol>
         <symbol id="icon-close" viewBox="0 0 18 18">
            <path d="m1 1 16 16M1 17 17 1" stroke="#000"/>
        </symbol>
        <symbol id="icon-newdate" viewBox="0 0 24 24"><path d="M9 11H7v2h2v-2Zm4 0h-2v2h2v-2Zm4 0h-2v2h2v-2Zm2-7h-1V2h-2v2H8V2H6v2H5c-1.11 0-1.99.9-1.99 2L3 20a2 2 0 0 0 2 2h14c1.1 0 2-.9 2-2V6c0-1.1-.9-2-2-2Zm0 16H5V9h14v11Z" fill="#4A56E2"/></symbol>
    </defs>
</svg>